<?xml version="1.0" encoding="UTF-8"?>
<svg width="51px" height="50px" viewBox="0 0 51 50" version="1.1" xmlns="http://www.w3.org/2000/svg" xmlns:xlink="http://www.w3.org/1999/xlink">
    <!-- Generator: Sketch 57.1 (83088) - https://sketch.com -->
    <title>Shape</title>
    <desc>Created with Sketch.</desc>
    <g id="Page-1" stroke="none" stroke-width="1" fill="none" fill-rule="evenodd">
        <g id="Assign-Job" transform="translate(-22.000000, -574.000000)" fill="#FFFFFF" fill-rule="nonzero">
            <g id="Sidebar-small" transform="translate(0.000000, 144.000000)">
                <path d="M53.9226806,456.797549 C55.8919823,454.902803 58.5225125,453.850655 61.2552791,453.864688 C65.2555185,453.777721 68.9286155,456.064614 70.6158701,459.692651 C70.8378525,460.19749 71.4266325,460.427325 71.9319286,460.206386 C72.4372247,459.985448 72.6682764,459.397144 72.4483823,458.891392 C71.0504274,455.782354 68.3712168,453.433639 65.10594,452.454679 C66.7362023,451.086033 67.669525,449.060446 67.6506397,446.931928 C67.6506397,443.10927 64.7825134,439.999173 61.2574512,439.999173 C58.510738,440.069335 56.1107835,441.873774 55.2805882,444.492959 C54.1139596,443.586726 52.7943549,442.896916 51.3843583,442.456245 C53.0152596,441.087672 53.949011,439.061716 53.9301023,436.932755 C53.9301023,433.110098 51.061976,430 47.536375,430 C44.0113016,430 41.1431865,433.110098 41.1431865,436.932755 C41.1242966,439.061588 42.057905,441.087438 43.6885916,442.456068 C42.2773397,442.897481 40.9564401,443.587813 39.7883176,444.494437 C38.9585189,441.874539 36.558215,440.069412 33.8109435,439.999206 C30.2858757,439.999206 27.417755,443.109304 27.417755,446.931961 C27.3988697,449.06048 28.3321924,451.086066 29.9624546,452.454712 C26.6971907,453.433669 24.017988,455.782371 22.6200291,458.891392 C22.4756025,459.218967 22.5173031,459.598758 22.7293666,459.88719 C22.94143,460.175623 23.2915016,460.328691 23.6472421,460.288529 C24.0029825,460.248367 24.3101162,460.021103 24.4525357,459.692651 C26.1397903,456.064614 29.8128873,453.777721 33.8131267,453.864688 C36.5484795,453.849409 39.1815601,454.903432 41.1508137,456.801965 C41.1763676,458.872044 42.1023299,460.828323 43.6871028,462.160379 C42.2761901,462.601843 40.9556365,463.292165 39.787851,464.19872 C38.9576763,461.579496 36.5576986,459.775023 33.8109546,459.704867 C30.2858869,459.704867 27.4177661,462.814965 27.4177661,466.637616 C27.3988409,468.766622 28.3326535,470.792615 29.963649,472.161145 C26.6993102,473.140201 24.0203117,475.487351 22.6205735,478.594631 C22.4752697,478.92211 22.5162885,479.302304 22.7280984,479.591255 C22.9399083,479.880205 23.2901311,480.033742 23.6461577,479.993731 C24.0021843,479.953719 24.3095908,479.726275 24.4519802,479.397518 C26.1409707,475.770966 29.8134794,473.485209 33.8131267,473.571171 C37.8127677,473.484932 41.4853673,475.770644 43.174251,479.397245 C43.3175756,479.724399 43.6245472,479.950238 43.9795325,479.989692 C44.3345178,480.029146 44.6835862,479.87622 44.8952469,479.588521 C45.1069077,479.300821 45.1490045,478.922057 45.0056799,478.594903 C43.6058284,475.48628 40.9254868,473.138404 37.6596157,472.160034 C39.2897865,470.791463 40.2230478,468.765983 40.2041431,466.637583 C40.2041431,466.593203 40.198788,466.550278 40.1980047,466.506065 C44.3054351,462.591654 50.7624949,462.591206 54.8704678,466.505048 C54.8696901,466.549567 54.8642627,466.592864 54.8642627,466.637583 C54.845358,468.765983 55.7786193,470.791463 57.4087901,472.160034 C54.142919,473.138404 51.4625774,475.48628 50.0627259,478.594903 C49.9194013,478.922057 49.9614981,479.300821 50.1731588,479.588521 C50.3848196,479.87622 50.7338879,480.029146 51.0888733,479.989692 C51.4438586,479.950238 51.7508302,479.724399 51.8941548,479.397245 C53.5830385,475.770644 57.2556381,473.484932 61.2552791,473.571171 C65.2549264,473.485209 68.9274351,475.770966 70.6164256,479.397518 C70.7598474,479.724671 71.0669089,479.950458 71.4219429,479.989828 C71.7769769,480.029198 72.1260453,479.876168 72.3376574,479.588385 C72.5492695,479.300601 72.5912764,478.921784 72.4478545,478.594631 C71.0481115,475.487346 68.369104,473.140195 65.1047568,472.161145 C66.7357538,470.792614 67.6695665,468.766618 67.6506397,466.637611 C67.6506397,462.814959 64.7825134,459.704861 61.2574512,459.704861 C58.511242,459.774972 56.1115946,461.578777 55.281027,464.197315 C54.1147198,463.291168 52.7954795,462.601341 51.3858471,462.160534 C52.9720344,460.82755 53.8983283,458.869322 53.9226806,456.797549 Z M33.8109546,471.570471 C31.3882184,471.570471 29.4173829,469.357653 29.4173829,466.637605 C29.4173829,463.917557 31.3882351,461.704473 33.8109546,461.704473 C36.0786798,461.704473 37.9499836,463.643638 38.1802337,466.122343 C38.1967103,466.30669 38.204543,466.471128 38.204543,466.637605 C38.204543,469.357653 36.2336964,471.570471 33.8109546,471.570471 Z M61.2574512,461.704473 C63.6801874,461.704473 65.6510229,463.917563 65.6510229,466.637605 C65.6510229,469.357648 63.6801707,471.570471 61.2574512,471.570471 C58.8347316,471.570471 56.8638794,469.357653 56.8638794,466.637605 C56.8638794,466.47154 56.8717455,466.307501 56.8861001,466.145602 C57.1179833,463.64401 58.9894871,461.704473 61.2574512,461.704473 Z M61.2574512,441.998789 C63.6801874,441.998789 65.6510229,444.21188 65.6510229,446.931928 C65.6510229,449.651976 63.6801707,451.865061 61.2574512,451.865061 C58.8347316,451.865061 56.8638794,449.65197 56.8638794,446.931928 C56.8638794,446.766601 56.8717789,446.603346 56.8859834,446.442124 C57.1177111,443.938533 58.9893538,441.998789 61.2574512,441.998789 L61.2574512,441.998789 Z M47.536375,431.9996 C49.9591112,431.9996 51.9305022,434.212685 51.9305022,436.932733 C51.9305022,439.652781 49.9591112,441.865866 47.536375,441.865866 C45.1136387,441.865866 43.1428032,439.652775 43.1428032,436.932733 C43.1428032,434.21269 45.1136332,431.9996 47.536375,431.9996 Z M47.5342029,443.865499 C50.268505,443.851499 52.9004268,444.904624 54.87034,446.800948 C54.8695567,446.844956 54.8642293,446.887714 54.8642293,446.931928 C54.8453271,449.060432 55.7786374,451.08601 57.4088901,452.454646 C56.0308664,452.884469 54.7386909,453.552127 53.5908324,454.427409 C52.8257983,451.69654 50.3712935,449.782344 47.536325,449.705678 C44.7007093,449.782558 42.2459481,451.697782 41.4816954,454.429548 C40.3331404,453.552698 39.0397023,452.884076 37.6601601,452.454068 C39.2899842,451.085417 40.2230165,449.060114 40.2041431,446.931928 C40.2041431,446.888086 40.1988213,446.845706 40.1980713,446.802065 C42.168685,444.906696 44.8000492,443.853392 47.5342029,443.865499 L47.5342029,443.865499 Z M33.8109546,441.998789 C36.0788465,441.998789 37.9502503,443.938227 38.1803003,446.417204 C38.1966769,446.602746 38.204543,446.766295 38.204543,446.931928 C38.204543,449.65197 36.2336964,451.865061 33.8109713,451.865061 C31.3882462,451.865061 29.4173995,449.65197 29.4173995,446.931928 C29.4173995,444.211885 31.3882184,441.998789 33.8109546,441.998789 Z M47.5555625,461.57021 C45.1026173,461.557594 43.1427866,459.350709 43.1427866,456.638433 C43.1427866,453.918385 45.1136332,451.705294 47.5363583,451.705294 C49.9590834,451.705294 51.9304856,453.918385 51.9304856,456.638433 C51.9304856,459.35122 49.9693827,461.558444 47.5555625,461.57021 Z" id="Shape"></path>
            </g>
        </g>
    </g>
</svg>